# xmcd
#
# Track frame offsets:
# 150
# 9444
# 18763
# 27901
# 37223
# 46503
# 55751
# 65099
# 74373
# 83271
# 92438
# 101857
# 111308
#
# Disc length: 1602 seconds
#
#
# Revision: 0
# Processed by: cddbd v1.5.1PL2 Copyright (c) Steve Scherf et al.
# Submitted via: FreeRIP 2.944 
#
DISCID=9b06400d
DTITLE=Walter Trout and Friends - Full Circle
DYEAR=2006
DGENRE=Blues
TTITLE0=SheTakesMoreThanSheGives
TTITLE1=WorkingOvertime
TTITLE2=FirehouseMama
TTITLE3=WhosListeninIn
TTITLE4=SlapHappy
TTITLE5=WrappedAroundYourFinger
TTITLE6=ABusyMan
TTITLE7=HighwaySong
TTITLE8=WhenWillItEverChange
TTITLE9=CantHelpFallingApart
TTITLE10=AfterHours
TTITLE11=CloudsOnTheHorizon
TTITLE12=FullCircle-AsToldByLarryKeene
EXTD=Promotion Pre-Release
EXTT0=
EXTT1=
EXTT2=
EXTT3=
EXTT4=
EXTT5=
EXTT6=
EXTT7=
EXTT8=
EXTT9=
EXTT10=
EXTT11=
EXTT12=
PLAYORDER=
